/* XPM */
static char *_2460baad24d41a48bc861559cd2fb6eehaFgGtB4b6JY35o[] = {
/* columns rows colors chars-per-pixel */
"64 64 206 2 ",
"   c #5D3816",
".  c #5E3D1A",
"X  c #623E1C",
"o  c #65401B",
"O  c #6B441E",
"+  c #6E4C1E",
"@  c #78521F",
"#  c #6F4620",
"$  c #6A4821",
"%  c #744C23",
"&  c #7A4D24",
"*  c #765124",
"=  c #7B5325",
"-  c #7D5C27",
";  c #7E5429",
":  c #8B5427",
">  c #8D5926",
",  c #83572B",
"<  c #855C2B",
"1  c #8A5C2D",
"2  c #915D26",
"3  c #935B29",
"4  c #875D31",
"5  c #8B5E30",
"6  c #8A6226",
"7  c #85602A",
"8  c #8A6628",
"9  c #8D642E",
"0  c #93642D",
"q  c #9A6228",
"w  c #956B2D",
"e  c #9A6A2E",
"r  c #95702C",
"t  c #9B732E",
"y  c #8D6433",
"u  c #8F6A31",
"i  c #8C663A",
"p  c #8D6A3E",
"a  c #936533",
"s  c #9B6432",
"d  c #956B35",
"f  c #9A6B34",
"g  c #92673A",
"h  c #946B3B",
"j  c #9B6E3C",
"k  c #977036",
"l  c #9C7334",
"z  c #977936",
"x  c #9F7936",
"c  c #977138",
"v  c #9C733C",
"b  c #9E793B",
"n  c #A4792E",
"m  c #A16733",
"M  c #A26D33",
"N  c #A16E39",
"B  c #A17434",
"V  c #A97736",
"C  c #A37B35",
"Z  c #AB7C34",
"A  c #A3733D",
"S  c #A9753D",
"D  c #A47B3B",
"F  c #AA7C3D",
"G  c #8F6B41",
"H  c #946D41",
"J  c #996F41",
"K  c #967144",
"L  c #9C7343",
"P  c #9F7944",
"I  c #9B7649",
"U  c #9C7A4B",
"Y  c #A37543",
"T  c #A97643",
"R  c #A47A44",
"E  c #AB7C44",
"W  c #A27749",
"Q  c #A47C4A",
"!  c #AA7D4A",
"~  c #B27F4C",
"^  c #A27E51",
"/  c #A5812F",
"(  c #B28327",
")  c #B3862E",
"_  c #A78234",
"`  c #AC8435",
"'  c #A6833B",
"]  c #AB833C",
"[  c #AD8A3B",
"{  c #B18137",
"}  c #B38932",
"|  c #BA8F33",
" . c #B3853D",
".. c #B38C3C",
"X. c #B5913D",
"o. c #BB933C",
"O. c #BD9A3F",
"+. c #C0953B",
"@. c #C19A3E",
"#. c #C9A03D",
"$. c #A68243",
"%. c #AC8444",
"&. c #AD8A44",
"*. c #A6814C",
"=. c #AD844B",
"-. c #AE8A4A",
";. c #B38545",
":. c #B38B44",
">. c #BA8D43",
",. c #B2854A",
"<. c #B9834B",
"1. c #B48C4B",
"2. c #BB8C4B",
"3. c #AD904D",
"4. c #B59243",
"5. c #BB9543",
"6. c #BD9B45",
"7. c #B5934C",
"8. c #BA944B",
"9. c #B79A4E",
"0. c #BC9B4B",
"q. c #A68353",
"w. c #AC8352",
"e. c #AD8954",
"r. c #B38652",
"t. c #B58954",
"y. c #BA8C53",
"u. c #B78B58",
"i. c #B98E5B",
"p. c #AD9154",
"a. c #B79352",
"s. c #BB9554",
"d. c #BC9B53",
"f. c #BB935B",
"g. c #B89C5A",
"h. c #BFA047",
"j. c #BEA14E",
"k. c #BEA153",
"l. c #BEA25B",
"z. c #B98F60",
"x. c #BB9162",
"c. c #C28C4F",
"v. c #C19444",
"b. c #C29D44",
"n. c #C1944B",
"m. c #C29C4B",
"M. c #C38E53",
"N. c #C29453",
"B. c #C19F55",
"V. c #C99459",
"C. c #C19E59",
"Z. c #C5A246",
"A. c #CAA345",
"S. c #CFA945",
"D. c #C4A34C",
"F. c #CAA54B",
"G. c #CDAC4E",
"H. c #D0A846",
"J. c #D4AD4D",
"K. c #D3B24D",
"L. c #D8B04F",
"P. c #C2A353",
"I. c #CAA653",
"U. c #C6A956",
"Y. c #CBAB54",
"T. c #C2A45A",
"R. c #C5AA5C",
"E. c #CAAE5B",
"W. c #CEB154",
"Q. c #CCB25B",
"!. c #D3B254",
"~. c #D9B656",
"^. c #D9B855",
"/. c #D3B55C",
"(. c #D6BB5D",
"). c #DBBC5B",
"_. c #C1A761",
"`. c #C5AD63",
"'. c #C8AB60",
"]. c #CBB363",
"[. c #CEB866",
"{. c #C6B168",
"}. c #CCB768",
"|. c #D1B764",
" X c #D5BB65",
".X c #D9BE61",
"XX c #D3BD69",
"oX c #D2BE72",
"OX c #DDC15B",
"+X c #D6C065",
"@X c #DBC364",
"#X c #D5C16C",
"$X c #DAC46C",
"%X c #DCC96C",
"&X c #D6C576",
"*X c #D9C571",
"=X c #DCCB74",
"-X c #DBCD7E",
";X c #E1C762",
":X c #E1C963",
">X c #E0CB72",
",X c #E0CD78",
"<X c #E3D47D",
"1X c #E6D885",
"2X c #E5D98B",
"3X c #E6DE93",
/* pixels */
"j a 1 , 1 3 m A E %.&.7.E v y a f M  .b.K.6._ 8 6 w C ` ` ` +.#.@.C > f ! f.f.i.t.w.Q v j Y E =.! ! T ~ y.V.M.<.T Y Y Y Y Y Y Y ",
"j h a a a s m N A D D E A j d d f M { 5.b.X.C 9 9 l _ [ ..X.A.K.Y...B E t.f.i.t.<.! R v L R Q =.Q ! ! r.y.N.c.<.E Y A Y Y Y Y Y ",
"j j j L Y Y A N j j j A S S A d f l Z ` Z C f y y k ' [ X.6.G.OXOXF.5.8.s.s.y.;.=.! R L L W Q Q R Q ! =.,.,.;.,.E Y j A S Y Y Y ",
"j j j Y ! ! Y Y Y Y Y E E E E v v l Z ] F E R L P R %.&.4.b.W.OX;X~.Y.m.d.s.1.&.%.Q Q W W Q W R R Y Y L L A Y E R L v A S A A Y ",
"L L L Y ! ! ! R Y E =.;.;.%.E S F D ] %.&.;.1.-.-.-.&.:.4.6.F.K.).^.!.I.B.s.1.&.%.$.*.Q P L L L v v h g y y d j L K v v A A Y Y ",
"Q W Y Y Y R Q Q ! =.,.;.-.=.,.;.;.;.<.2.n.N.N.s.s.8.8.9.0.D.F.!.(./.Y.D.0.1.&.%.D E R P L v v h g g a y y 9 y a g g g j L L L L ",
"! Q R Y A Y Y Q ! =.=.-.-.-.;.<.2.2.2.2.2.n.8.8.8.d.d.T.R.E.G.G.G.I.m.8.:.%.%.%.D D Y v v h d d y y y a a a a y y y y g h J L L ",
"W L L L v v L Y *.=.=.=.-.-.1.;.;.;.;.<.2.2.8.8.0.T._.{.`.E.F.Z.b.5.....] ] ' D D v v v d d d u 9 y d f f d a y y y y d h h J L ",
"K h g h h j j Y Q =.=.=.-.-.-.%.%.%.&.1.7.s.s.d.T._.`.`.U.D.o.| } } ..[ &.] %.%.D x l k d d d d d d d v f f h h h d d d d h J L ",
"H p i i p h J L R Q =.=.=.-.-.%.%.%.&.1.s.g.l.d.d.d.d.d.4.} ( ) ) } ..4.&.] %.] D l l k k k k k v v v v v j h v v v v h h g h H ",
"H p i i p h K L L P Q *.=.-.&.&.%.&.1.1.a.s.s.d.8.9.d.0.6.o.o.o.6.6.0.9.4.&.] ] D l l x x v v v b b P v v A A R R R Y v h h H H ",
"H H G p p H K L I I I *.=.1.1.&.&.&.;.;.&.%.&.;.:.9.T.R.R.Y.Q./.XXXX].k.4.&.] ] C l t l b b v v v b b v v A S R E E R L j J K K ",
"H H H H H K K K K K K R =.a.7.1.1.1.:.&.%.D R %.8.R.oX&X*X@X=X<X2X-X}.k.4.:.` ` C C t l D D D x x b v x l B S E E R Y K K K L L ",
"K K K K K K K H K K L Q 1.s.s.s.8.d.d.s.1.%.E %.m.].*X&X*X%X<X2X2X-X].k.4.X...[ ] _ ] ] %.] D D D D D D B S D E E Y Y K J K K I ",
"U U U I K H H h J Y *.=.1.a.a.7.8.d.d.d.d.1.1.8.P.E.XXXX$X*X,X1X=X#XD.0.0.j.0.4.4.4.7.7.7.:.] ] ] ] ] ] V V D R S A v L K K I I ",
"^ ^ Q Q I K h g J L *.=.-.-.&.%.:.7.d.d.8.7.:.:.4.0.P.U.[.#X*X%X(./.F.h.6.j.0.0.0.0.P.P.T.8...` ]  .;.] F S D D D Y R R R W W Q ",
"q.q.q.q.Q R L h h v P R R $.] ] ] :.8.8.5.7.] D C D ' &.9.R.U.Y.F.G.Z.O.5.m.D.D.D.0.P.P.P.5.:.`  .`  . .] F V S E E ! ! Q Q W Q ",
"q.w.e.t.w.=.Y v h h c v D $.%.&.1.8.8.0.T.d.$.f a 0 9 9 u z ' 4.b.Z.@.o.} X.b.D.6.5.6.0.0.0.4.`  . . . . .;.F ;.,.1.,.=.Q Q Q Q ",
"w.w.t.t.r.=.! Y v c k b D &.&.;.1.7.8.d.R.l.-.v f a < = + + - l ` X...} ) +.F.Z.6.X.5.6.6.5.4....... . . .;.;.<.<.<.=.! Q ! ! ! ",
"w.w.w.w.! E R Y R R $.&.-.7.-.&.1.:.7.k.`.`.d.E f a 1 % X . $ = 6 r t n Z o.A.b.o.X.5.6.D.P.0.5.5.5.>.>.>.>.2.2.,.,.! ! ! ! ! ! ",
"! ! ! T Y Y Y Q *.-.7.7.7.7.7.7.7.&.:.0.R.].d.%.s a 1 % o . X o O @ < w B ` o.6.b.b.D.D.P.P.D.m.m.v.>.>.5.8.<.;.E E ! ! ! ! ! R ",
"W W Y Y Y Y Y Q *.-.-.-.-.-.-.7.8.8.0.P.E.[.R.1.f 1 1 < = % O X   X * < y d C 4.m.Y.Y.Q.Y.Y.I.F.D.m.m.n.m.6.<.;.E E ! ! ! ! Y Y ",
"Y Y Y Y L L L Y Y R R P R E -.8.k.P.P.m.0.P.P.8.D f v D b 7 % O O # ; 5 y y f ] 6.Q./.(.Y.F.G.G.Y.Y.E.I.F.m.8.a.2.1.;.,.=.E E Y ",
"Y Y Y Y L K J L J h h g g v %.7.P.Y.E.P.0.6.6.0.7.:.8.T.R.$.9 & & & , 1 5 y h %.>.Y././.G.A.J.~. X X X/.Y.Y.T.T.C.d.1.;.;.,.=.! ",
"Y L L W I K H H H h g i y h %.7.9.0.7.&.D C ` 4.D.D.Y. X#Xk.%.v a 1 1 1 y d Y E ;.m.E.(.!.J.J.).@X$X#XXX|.|.[.].'.T.7.;.%.,.! ! ",
"H H K U Q I K K L L h y 9 a l D b x l d u 9 w D 4.0.I./.+XQ.j.9.1.D a > 1 a A %.;.8.I. X.X~.L.).@X$X+X#XXX[.].E.R.T.7.&.E E Y L ",
"H H L *.e.w.Q R R L j d d a 0 0 a a 1 , ; ; < 9 k D ..0.D.j.P.Q.Q.8.V q 3 0 f S F  .5.Y.Q.!.J.^.).(./.].Q.U.P.P.P.B.8.;.E R K H ",
"I P $.-.s.s.2.;.%.R L j j f 0 0 a a y , ; ; , 1 1 0 d C C x ' 9.E.I.5.Z M f f f f C ..0.D.D.F.G.!.!.Q.E.U.D.0.b.m.B.d.7.%.R K G ",
"g.7.:.:.8.N.c.2.,.E R Y Y N f f A A h 5 4 5 a a a a d f d a d ' 6.F.Z.v.:.F C l B Z X.D.6.4.X.X.b.F.G.W.W.Y.D.b.b.0.d.7.-.$.U U ",
"W.m.:. .;.2.2.y.t.,.! Q R S N A S j a y a h j A f f f f 9 1 1 d V :.5.5.>.] B w e F 5.D.D.6.X.[ [ 5.G.+X@X.X!.G.F.0.0.7.&.&.3.g.",
"G.5.V B S ,.y.i.i.t.=.! Y Y S S S N f d j E R R A A A A a a a a f F :.5...B w 0 e V :.m.D.6.0.&.] ] 6.(.:X).J.A.b.X.[ [ ' ] 6.I.",
"@.` 0 a Y r.i.i.i.t.=.! Y T E E T A N Y E y.r.=.Y Y A j h g g a a d v l e 2 3 > 0 B  .5.4.:.7.-.E B ..!.OXK.@.....` ` _ _ ` o.H.",
"@.Z 0 f ! i.f.i.u.r.! Y L Y E ! E E Y ! ,.M.2.,.T T Y Y L J j j j h h d a 3 s N N B F &.%.D R R A M  .b.G.b.` t w l n / / ` @.S.",
"G...B E r.f.i.t.,.! R v L R Q =.Q ! ! r.y.N.c.<.E Y A Y Y Y Y Y j h a a a s m N A D D E A j d d f M { 5.b.X.C 9 9 l _ [ ..X.A.!.",
"OXF.5.8.s.s.y.;.=.! R L L W Q Q R Q ! =.,.,.;.,.E Y j A S Y Y A v j j L Y Y A A j j j A S S A d f l Z ` Z C f y y k ' [ 4.6.G.(.",
";X~.Y.m.d.s.1.&.%.Q Q W W Q W R R R Y L L A Y E R Y j A S A A v v j j Y ! ! Y Y Y Y Y E E E E v v l Z ] F E R L P R %.&.4.b.W.OX",
").^.!.I.B.s.1.&.%.$.*.Q P L L L v v h g y y d j L K v v A A Y L Y L J Y ! ! ! R Y E =.;.;.%.;.S E D ] %.&.;.1.-.-.&.&.:.4.6.F.!.",
"(./.Y.D.0.1.&.%.D R R P L v v h g g a y y 9 y a g g g j L L L Y R W Y Y Y R R Q ! =.,.;.-.-.;.;.;.;.<.2.N.N.N.s.s.8.8.9.9.D.F.!.",
"Y.I.m.6.:.%.%.%.D D Y v v h d d y y y a a d a y y y y g h J L Y Q Q R Y A Y Y R ! =.=.-.-.-.;.<.2.2.2.2.2.n.8.8.8.d.d.T.R.E.G.G.",
"b.5.X...] ] %.D D v v v d d d u 9 y d f f d a y y y y d g g J L W L L L v v L R *.=.=.=.-.-.1.;.;.;.;.1.2.2.8.8.0.T._.{.`.E.F.A.",
"} } ..[ &.] %.$.D x l k d d d d d d d v f f h h h d d d d h J K K h h h h j j Y Q =.=.-.-.-.-.%.%.%.&.&.7.s.d.d.T._.`.`.U.D.o.| ",
"} } ..4.&.] %.] D l l k k k k k v v v v v v h v v v v j h h h H H p i i p h J L R Q =.=.=.-.-.%.%.%.&.1.s.g.l.d.d.d.d.d.4.} ( ( ",
"6.6.0.0.4.&.] ] D l l x v v v v v b P v v A A R R R Y v h h H H H p i i p h K L L P Q *.=.-.&.&.&.&.1.1.a.s.s.d.8.9.d.0.6.o.o.o.",
" XXX].k.4.&.] ] C l t l b b v v v b v v v B S R E Q R L j J K K H H G p p H K L I I I *.=.1.1.&.&.;.;.;.&.%.%.;.:.9.T.R.R.Y.Q.|.",
"2X-X}.k.4.:.] ` _ C t l D D D x x b v x l B S E E R Y K K K K K H H H H H K K K K K K R =.a.1.1.1.1.:.;.%.D R %.8.R.oX&X*X@X=X<X",
"3X-X].k.4.X...[ ] _ ] ] &.] D C D D D D B S D E E Y Y K J K I I K K K K K K K H K K L Q 1.s.s.s.8.d.d.s.1.%.E %.m.].*X&X=X%X<X1X",
"1X#XD.0.0.j.0.4.4.4.7.7.7.:.] ] ] ] ] ] V V D E S A v L K K I U U U U I K H H h J Y *.=.1.a.a.a.8.d.d.d.d.1.1.8.P.E.XXXX$X*X,X>X",
"+X/.F.h.6.j.0.0.0.0.P.P.T.8...` ]  .;.] F S D D D Y R R R W Q Q ^ ^ Q Q I K h h J L *.=.-.-.&.&.:.7.d.d.8.4.:.:.4.0.P.U.[.#X*X.X",
"W.G.Z.O.5.m.D.D.D.0.P.P.P.5.:.`  .`  . .] F V S E E ! ! Q Q W Q ^ q.q.q.Q R L h h K P R R $.] ] ] :.8.8.5.7.] D C D ' &.9.R.U.D.",
"Z.Z.@.o.} X.b.D.6.5.6.0.0.6.4.`  . . . . . .F ;.,.1.=.=.Q Q Q Q q.w.e.t.w.=.Y v h h c v D $.%.:.1.8.8.0.T.d.$.f a 0 9 9 u z ' X.",
"..X...} ) +.F.Z.6.X.5.6.6.5.4....... . . .;.;.<.2.<.,.! Q Q ! =.q.e.t.u.r.=.Q L v c k b D &.&.;.1.7.8.d.U.l.-.v f a < = + + - w ",
"8 r t n Z o.A.b.o.X.5.6.D.P.0.5.5.5.>.>.>.>.2.<.,.,.! ! ! ! ! =.w.w.w.w.! E R Y R Q $.&.-.7.1.&.-.:.7.k.`.`.d.E f a 1 % X . $ * ",
"O @ 6 w B ` X.6.b.b.D.D.P.P.D.m.m.v.>.>.5.8.1.;.E E ! ! ! ! E Q ! ! ! T Y Y Y Q *.-.7.7.7.7.7.7.1.&.:.0.R.].d.%.s a 1 % o . X o ",
"  o * < y d C 4.m.Y.Y.Q.Y.Y.I.F.F.m.m.n.m.6.1.;.E E ! ! ! ! Y Y W Y Y Y Y Y Y Q *.-.-.-.-.-.-.7.8.8.0.P.E.[.R.1.f 1 1 < = % O o ",
"O # ; 4 y y f ] 0.Q./.(.Y.F.G.G.E.Y.E.I.m.m.8.a.1.1.;.,.=.E E Y Y Y Y Y L L L Y Y R R P P E -.8.k.P.P.m.0.P.P.8.D f v D b 7 % O ",
"% & , 1 5 y h %.>.Y././.G.A.J.~. X XXX/.Y.Y.T.T.C.s.1.;.;.,.=.! Y Y L L L L J L J h h g g v %.7.P.Y.E.P.0.6.6.0.7.:.8.T.R.$.9 = ",
"y 1 1 1 y d Y E ;.m.E.(.!.J.J.).@X$X#XXX|.|.[.].'.T.7.;.&.;.=.Q Y L I W I K H H H h g i y h %.7.9.0.7.&.D C ` 4.D.D.Y. X#Xk.&.b ",
"1.D a > 1 a A %.;.5.I. X.X~.L.).@X$X+X#XXX[.].E.R.T.7.&.E E Y L H H K Q Q I K K L L h a 9 a l D b x l d u 9 w D 4.0.I./.+XE.j.9.",
"E.8.V q 3 0 f S F  .5.Y.Q.!.J.^.)..X/.Q.Q.U.P.P.P.B.8.;.E R K H G H L *.e.w.Q R R L j d d a 0 0 a a 1 , ; ; < 9 k D ..0.j.j.P.Q.",
" XI.5.Z M f f f f V ..m.D.D.F.G.!.!.W.E.U.D.0.6.m.B.d.7.%.R K K K R $.1.s.s.2.;.%.R L j j f 0 0 a a y , ; ; , 1 1 0 d C C x ' &.",
"D.F.Z.v.:.F C B B Z X.D.6.4.X.o.b.F.G.W.W.Y.D.b.b.0.d.7.-.$.U q.p.7.:.:.8.N.2.2.,.E R Y Y N f f S A h 5 4 5 a a a a d f d a d v ",
"] :.5.5.>.] B w e F 5.D.D.6.4.[ [ 5.G.+X@X.X!.G.F.0.0.7.&.&.3.k.U.m... .;.2.2.y.t.,.! Q R S N A S j a y y h j A f f f f 9 1 1 1 ",
"l F :.5...B w 0 e V :.m.D.6.0.&.] ] 6.(.:X).J.A.b.X.[ [ ' ] 6.Y.I.5.V B S ,.y.i.i.t.=.! Y Y S S S N f d v Q R R A A A A a a a a ",
"a h %.[ C 6 : : 1 0 Z ..5.5.R.l.-.x ..W.OXK.#.@.5..._ C C ` @.S.b.` f a v w.i.x.z.u.r.! Y T T E S A f A E <.,.! Y T A f a a a a "
};
