/* XPM */
static char *_99e502b630d48d6b93cb771af46e3abwqrWDNs9wBO0tbGZ[] = {
/* columns rows colors chars-per-pixel */
"64 64 46 1 ",
"  c #010101",
". c #070707",
"X c gray6",
"o c #111111",
"O c #161616",
"+ c #1B1B1B",
"@ c #1E1E1E",
"# c gray13",
"$ c gray15",
"% c gray16",
"& c #2F2F2F",
"* c #313131",
"= c #353535",
"- c #393939",
"; c gray24",
": c gray25",
"> c gray28",
", c #484848",
"< c gray30",
"1 c #515151",
"2 c gray33",
"3 c #5A5A5A",
"4 c gray36",
"5 c #606060",
"6 c #656565",
"7 c gray42",
"8 c #6D6D6D",
"9 c #717171",
"0 c gray46",
"q c gray48",
"w c gray49",
"e c #838383",
"r c #868686",
"t c #8B8B8B",
"y c #8E8E8E",
"u c #909090",
"i c #959595",
"p c gray60",
"a c #9F9F9F",
"s c #A2A2A2",
"d c #A4A4A4",
"f c #AAAAAA",
"g c #AFAFAF",
"h c gray69",
"j c #BBBBBB",
"k c #BCBCBC",
/* pixels */
"si<381+&ui<17,+&gg2171@*ii,185%*ii<17<+*ui2171+&0u<17:+*si<42;+*",
"ii<101+$9t<15<@&tg>>53@&uu;<4,#*ii,>4,+*ii<171+*ui<183#*ii<17<+*",
"is<181+&t0<6e2#*yi,,w1+*ii,37:+$uu>>73+*ii<381+*ii<172@*ii<1e1@=",
"ii<17<+*ii5696@-qu<1q,+=ii<18<+&uu,>41+*ii<171+*di2186&:hi<181@*",
"ii<16;+*iu<186%*ui<101+*dd<,91O$we,<83+*ui<171+*dp2,04#&ii<183@=",
"ii<<2;>984,102@*ui<181+*id<<6<O$yr,<e6+&ru<171+*dd2,71>780<171+*",
"ii<199js,#;17<O&0u<381@=id<103+*ds>382+%te,171+*ii1,7qjs,#;171+*",
"ph<18qsw& #151+*ui1181@*rd2181+*id<383+%9w,,71+*iu>48esw& $14<+=",
"ii;<71>&X #171@*iu>,01@*id1381+*ii<4q4+&uu<171+*iu<14,>&X.#14>+*",
"it;<7:.  #;171@*ii<181@=dd2181+*ui<393+&ui<171+*ur117;.  #;571@*",
"u0,<71+O:6,171@*ii217,+=ii,1q3@&eu<103@*ii<171@*iu<151OO:7,25<+=",
"iu,:6:+%ue<181+*ii<17,+*iu;3q1+%eu<181+*ii,171@=ii2371@;hi<571+*",
"di2181@%si2301+*ii<181+&ui,181+*ui<101+*iu>17,+*ii2,71@*ii<251+*",
"di<101@&di2181@*ii<101@*ii<183@*ii<3q1@*ii,103@*ii<,73@=iu<681+*",
"ii24q1+$ue<103@*ii2181@=ii<171$;pi<1q4@=di<181@=ii<181@=ir<6e1+*",
"si<37:+%y0,181@*id<171@*si<17,@*hi<183@&di<1e2@*id1301+*iu<181+*",
"ii,,7<+$yu<171+*id<171+*is<1q3@*pi,15,+*di<181@*id4281+*ii<181+%",
"ui<181@&ru<181@=id<171+*ii<104@*di>171@=di<171+*ii<171+*ii<1q3+%",
"ui<101@*ui2401+*ui<381+*ii1>11@=hi,171+*ii,171+*iu<171+*ii<1q3+%",
"ui,,71@*ii<381+*ru<171+*ii<>13@*di<481+*iu>171+&ue,171@*ii<30,+%",
"ui<171@*ii<381+*ii<381+*ii,,73@*di,:61+*ii,181+*ur<183@*id<181+%",
"ii<181>880<171+*dd<381+=ii<183+&ia;-1<+&ui<1q3@*is2181,88e<171+*",
"ii<109js,#;171+*di<,71+*is<37,+*ii,<71@=ii<1q1+*ii<109js,#:371+*",
"ui<18qsw& #171+*ii2171+%ui<181@*ii<171@=ii<10,+*ii<17qsw& #32<+*",
"ru<171>&X #171+*ii<17,+%eu,,w2#=di<383@*id<10,+*ii<15<>&X #371@*",
"ui<18>.  #;171+*si<171+%ui,>7,+*ii<171@*id<301@*ii<17:.  %;381@*",
"ii<181OO:0<171+*ii<183+&ii,>4<+*id2183@*ii>151#;ii2171@+:q2481@*",
"si<103+%ti<171+*ii<171+&ui<171+*ri<181@*ii,171+&is<171@*ii<381+*",
"pi<183@*qu<<4<+*ii<171+&ru<171+*ui<102%;ii<171+%ui,171$:ii<381@-",
"ii<104@=uu,,3,+*ii<<41+*si<<2<+*ii2183@*ia<181+&iu:,71@;ii<183@*",
"ii<183@*e0,<4<+*ii,:3<+&ii,;61@*ii<151@*sq,103+&ue:<71+*ru,171@*",
"ii<171@*ia<171+*is<24>O%ui,;71@:iu>171+&si<181+*iu>171@*uu>171@&",
"ui<151@*ii2181+*ii1,4>+&et;;63+;ie<171+*ig<<6:+*ii,<11@*ii,181+%",
"ii<171@=ii2101@*ii<171+%we,<2<+=ir4171+&90>;1<+*ii<;11@*ii<1e6&=",
"ui<171+*di<101@*dd<171+*ui237,@*ui2171+*ut;<71+*ii3:61@*ii<18,#*",
"ru<171@=hi,181@*ii<171+*id2171@*ru<171+*ii,171@*ii<<71+*ii<17;O&",
"ui<171@*ie>301@*iu,,71+*sp<171@=ii<151+*au,171@*ii<171+*ii417;+&",
"ui,181,886,181+*ue>281+*is<151@*ii2185@=08;<71@*is<381,880<17<+$",
"uu>10qjs,#;181+*iu,171+*ii<171@*is<171+*ye,171+*si<179ks,#;171+$",
"iu:,70sw& #3q1+*iu;>73@=dd<172@*ip<171+*iu,,7>O*ui<370sw& #17<O-",
"ii,171>&X $201+*iu:<21+*pi<185@*hh<185@;ii,,7<O-qi,,7<>&X #17,+;",
"iu<<5:.  %>381+%uu,<71+*hp<172$:hi<17<+=ii<101+*ih<17:.  #;171@*",
"i0,:71OO-022q3+%yw;:71@-ah5171@*u0,152@*ii<151+*ii<171OO:0<171%;",
"iu<103@*ui<1q3@&e8-<71+*ii<171+*et;<71+*ii<173@*ii<171+*ii<171%*",
"ui<181+*ii<101+*uu,<2<+*ii<17<O*0u,181+*ii<171@=ii<383@=ii<17,#*",
"ru,171+*ii,>4<+*ii<171+*ii<171@*wu<103@=ii<171@*si<17,+*ts<15<@*",
"ye;>71+*ui,>41+*ii<171+*ii<183+$wi2381@=ii<171@*ii,301+*si<191+*",
"ru,171+&ra<<4<+*ii<17<O=ph1171+$ti<101@=di<171@*iu;181+*ii2151@*",
"ui,171+*ur>171+&iu,171+*ug6681+&qu<181+*ii<183@*ii2171+*ii<302$*",
"uy><71+%ui117<+$t0:17<O&qh6481+%pi<17<O=ii<171+*ii4171+*ii2202$*",
"e9;:61+%eu,:5:+$uu,171@-ri<171+&ii<17:+*ii<371+*ii<171@*ii<181@*",
"uu,<3<+%ui<<1<+&ii<171@*ui<171+*ui<17<+$ui<151+*is,181#:hi<171+*",
"ii<2e2+*ii<<2<+*ui<171+*ii<15<+%eu,181+&ii<171+*iu;<01+*ii<171@=",
"eu<6t6>880<1w1+&0u<171+*ii<171+&ue>103@*ii<17,+*si,,71,970<171+*",
"we,189js,#;181+&ui<171+*ii<171+*ue,181@=di<101+*uu2179js,$;171+*",
"eu<18esw& #171+$ui<171+*ii2171+*iu<171@-hp<18,+&89,17qsw&.#171@*",
"ui,171>&X #37,+&ii2171+*is<171+*ii<171@*hf<10<O&9t<171>&X #171#*",
"uu>17:. .$;171+*ii<16,+&at1171+*iu<381@*ah<17:+*ui<17:.  #;171@*",
"eu,171oo:e<171+&ii<<2,O*iy>,71+&it24q3@*sp<17<+*ii<171OO:0<171+*",
"ee<152O&ii<381+$ui<16:+-ie:<71+&sd2181+&ru<17,+*ii<171+*ii<183@*",
"ii2171+&ui<171+%ui,182O$uu,171+=pi>171+%wu<183@*ii<171+*ii<102@=",
"si<171+&ii<171+&ra>171+&iu>>41@-di,171+%wu,183@*ii215<+*ii<181@*",
"ii2171+%ui<171+*ui<381+*ii1,24@=di<171+&eu>102@*si<17:+*ui<171+*",
"ii<381+*ii<171+*pd<381+*ii<372@=ii<17,+*ei2181+*ui230<+&ru<17<+*"
};
